<?xml version="1.0" encoding="UTF-8" standalone="no"?>
<!-- Created with Inkscape (http://www.inkscape.org/) -->

<svg
   xmlns:dc="http://purl.org/dc/elements/1.1/"
   xmlns:cc="http://creativecommons.org/ns#"
   xmlns:rdf="http://www.w3.org/1999/02/22-rdf-syntax-ns#"
   xmlns:svg="http://www.w3.org/2000/svg"
   xmlns="http://www.w3.org/2000/svg"
   xmlns:sodipodi="http://sodipodi.sourceforge.net/DTD/sodipodi-0.dtd"
   xmlns:inkscape="http://www.inkscape.org/namespaces/inkscape"
   width="32px"
   height="32px"
   id="svg2985"
   version="1.1"
   inkscape:version="0.48.4 r9939"
   sodipodi:docname="icon.svg">
  <defs
     id="defs2987" />
  <sodipodi:namedview
     id="base"
     pagecolor="#ffffff"
     bordercolor="#666666"
     borderopacity="1.0"
     inkscape:pageopacity="0.0"
     inkscape:pageshadow="2"
     inkscape:zoom="22.395604"
     inkscape:cx="13.226873"
     inkscape:cy="21.792793"
     inkscape:current-layer="layer1"
     showgrid="true"
     inkscape:grid-bbox="true"
     inkscape:document-units="px"
     inkscape:snap-bbox="true"
     inkscape:object-nodes="true"
     inkscape:bbox-nodes="false"
     inkscape:window-width="1366"
     inkscape:window-height="706"
     inkscape:window-x="-8"
     inkscape:window-y="-8"
     inkscape:window-maximized="1">
    <inkscape:grid
       type="xygrid"
       id="grid2993"
       empspacing="2"
       visible="true"
       enabled="true"
       snapvisiblegridlinesonly="true" />
  </sodipodi:namedview>
  <metadata
     id="metadata2990">
    <rdf:RDF>
      <cc:Work
         rdf:about="">
        <dc:format>image/svg+xml</dc:format>
        <dc:type
           rdf:resource="http://purl.org/dc/dcmitype/StillImage" />
        <dc:title />
      </cc:Work>
    </rdf:RDF>
  </metadata>
  <g
     id="layer1"
     inkscape:label="Layer 1"
     inkscape:groupmode="layer">
    <path
       sodipodi:type="arc"
       style="fill:#ffffff;fill-opacity:1;stroke:none;stroke-opacity:1"
       id="path3818"
       sodipodi:cx="16.5"
       sodipodi:cy="18.5"
       sodipodi:rx="14.5"
       sodipodi:ry="12.5"
       d="m 31,18.5 a 14.5,12.5 0 1 1 -29,0 14.5,12.5 0 1 1 29,0 z"
       transform="matrix(1.0344828,0,0,1.04,-1.0689655,-1.24)" />
    <path
       style="fill:#000000;fill-opacity:1;stroke:none"
       d="M 16,4 C 7.1634437,4 0,10.268013 0,18 0,25.731987 7.1634437,32 16,32 24.836556,32 32,25.731987 32,18 32,10.268013 24.836556,4 16,4 z m 0,2.1538462 C 23.731986,6.1538462 30,11.45755 30,18 30,24.54245 23.731986,29.846154 16,29.846154 8.2680135,29.846154 2,24.54245 2,18 2,11.45755 8.2680135,6.1538462 16,6.1538462 z"
       id="path2995"
       inkscape:connector-curvature="0" />
    <path
       style="fill:#000000;fill-opacity:1;stroke:none"
       d="M 2,12 C 2,12 2,9 2,7 2,5.0563494 2,0 4,0 8,0 11,5 11,5 L 6,8 z"
       id="path3768"
       inkscape:connector-curvature="0"
       sodipodi:nodetypes="cssccc" />
    <text
       xml:space="preserve"
       style="font-size:19.03851509px;font-style:normal;font-variant:normal;font-weight:normal;font-stretch:normal;line-height:125%;letter-spacing:0px;word-spacing:0px;fill:#000000;fill-opacity:1;stroke:none;font-family:Calibri;-inkscape-font-specification:Calibri"
       x="18.942007"
       y="-7.340446"
       id="text3790"
       sodipodi:linespacing="125%"
       transform="matrix(0.00661365,0.90394916,-1.1062184,0.00525938,0,0)"><tspan
         sodipodi:role="line"
         id="tspan3792"
         x="18.942007"
         y="-7.340446"
         style="font-style:normal;font-variant:normal;font-weight:normal;font-stretch:normal;font-family:Source Code Pro;-inkscape-font-specification:Source Code Pro">3</tspan></text>
    <path
       sodipodi:type="arc"
       style="fill:#000000;fill-opacity:1;stroke:none"
       id="path3794"
       sodipodi:cx="11"
       sodipodi:cy="13"
       sodipodi:rx="1"
       sodipodi:ry="1"
       d="m 12,13 a 1,1 0 1 1 -2,0 1,1 0 1 1 2,0 z"
       transform="translate(0,2)" />
    <path
       sodipodi:type="arc"
       style="fill:#000000;fill-opacity:1;stroke:none"
       id="path3796"
       sodipodi:cx="17"
       sodipodi:cy="13"
       sodipodi:rx="1"
       sodipodi:ry="1"
       d="m 18,13 a 1,1 0 1 1 -2,0 1,1 0 1 1 2,0 z"
       transform="translate(0,2)" />
    <path
       style="fill:#000000;fill-opacity:1;stroke:none"
       d="m 8,13 3,-3 1,1 -3,3 z"
       id="path3798"
       inkscape:connector-curvature="0"
       sodipodi:nodetypes="ccccc" />
    <path
       style="fill:#000000;fill-opacity:1;stroke:none"
       d="m 20,13 -3,-3 -1,1 3,3 z"
       id="path3798-7"
       inkscape:connector-curvature="0"
       sodipodi:nodetypes="ccccc" />
    <path
       style="fill:#ffffff;fill-opacity:1;stroke:none"
       d="M 4.5625,2.21875 C 4.4764214,2.4566988 4.3550158,2.6803269 4.28125,3.125 4.0736593,4.3763929 4.0625,6.0281747 4.0625,7 l 0,1.6875 C 5.3954148,7.379395 7.0069811,6.2972342 8.8125,5.5 8.5116405,5.0629501 8.012643,4.3598194 7.25,3.65625 6.4306364,2.9003535 5.4786709,2.3964276 4.5625,2.21875 z"
       id="path3831" />
    <path
       style="fill:#000000;fill-opacity:1;stroke:none"
       d="m 30,12 c 0,0 0,-3 0,-5 0,-1.9436506 0,-7 -2,-7 -4,0 -7,5 -7,5 l 5,3 z"
       id="path3768-8"
       inkscape:connector-curvature="0"
       sodipodi:nodetypes="cssccc" />
    <path
       inkscape:connector-curvature="0"
       style="fill:#ffffff;fill-opacity:1;stroke:none"
       d="M 27.4375,2.21875 C 27.52358,2.4566988 27.644984,2.6803269 27.71875,3.125 27.926341,4.3763929 27.9375,6.0281747 27.9375,7 l 0,1.6875 C 26.604585,7.379395 24.993019,6.2972342 23.1875,5.5 23.48836,5.0629501 23.987357,4.3598194 24.75,3.65625 25.569364,2.9003535 26.521329,2.3964276 27.4375,2.21875 z"
       id="path3831-8" />
  </g>
</svg>
